<?xml version="1.0" standalone="no"?><svg xmlns="http://www.w3.org/2000/svg" viewBox="0 0 1440 320"><path fill="#5000ca" fill-opacity="1" d="M0,128L24,117.3C48,107,96,85,144,85.3C192,85,240,107,288,133.3C336,160,384,192,432,186.7C480,181,528,139,576,122.7C624,107,672,117,720,144C768,171,816,213,864,234.7C912,256,960,256,1008,261.3C1056,267,1104,277,1152,256C1200,235,1248,181,1296,149.3C1344,117,1392,107,1416,101.3L1440,96L1440,0L1416,0C1392,0,1344,0,1296,0C1248,0,1200,0,1152,0C1104,0,1056,0,1008,0C960,0,912,0,864,0C816,0,768,0,720,0C672,0,624,0,576,0C528,0,480,0,432,0C384,0,336,0,288,0C240,0,192,0,144,0C96,0,48,0,24,0L0,0Z"></path></svg>